<svg width="91" height="90" viewBox="0 0 91 90" fill="none" xmlns="http://www.w3.org/2000/svg">
<path fill-rule="evenodd" clip-rule="evenodd" d="M31.1481 85.1332C31.2035 85.8466 31.1685 86.5845 31.3577 87.2615C31.4383 87.5474 31.9884 87.7022 32.3254 87.9167L32.7634 88.1977C32.5987 88.2937 32.4348 88.4703 32.268 88.4724C30.9604 88.4949 29.6526 88.4954 28.3451 88.4738C28.1713 88.471 28.001 88.3077 27.83 88.2187C27.9687 88.1185 28.1019 87.9447 28.2483 87.9328C29.125 87.8592 29.392 87.3266 29.3878 86.539C29.3801 85.0912 29.3836 83.642 29.3899 82.1928C29.3934 81.3855 29.1643 80.7961 28.2133 80.7597C28.0816 80.7541 27.9568 80.5523 27.8293 80.4422C27.9568 80.3644 28.0858 80.2173 28.2119 80.2194C29.8868 80.2397 31.5686 80.2026 33.2344 80.3434C34.5469 80.4548 35.4117 81.363 35.5006 82.41C35.5974 83.5586 35.008 84.3469 33.6751 84.8529L33.1643 85.0435C34.0227 85.855 34.7831 86.6483 35.6282 87.3364C36.0031 87.6427 36.5343 87.8249 37.022 87.909C37.9982 88.0758 38.528 87.656 38.5546 86.6882C38.5974 85.1262 38.577 83.5621 38.5623 81.9993C38.5553 81.2832 38.2477 80.8101 37.4488 80.7709C37.2981 80.7639 37.1545 80.5936 37.008 80.499C37.1755 80.4009 37.343 80.2187 37.5091 80.2194C39.2133 80.2334 40.9253 80.1808 42.6184 80.3322C45.5077 80.5887 47.1174 82.993 46.2722 85.6497C45.7572 87.2699 44.5238 88.1858 42.9373 88.2937C40.1636 88.4829 37.3745 88.4444 34.5917 88.464C34.3703 88.4654 34.097 88.225 33.9302 88.0274C33.2897 87.2671 32.6856 86.4766 32.0606 85.7036C31.8713 85.4696 31.6604 85.2544 31.4593 85.0302L31.1481 85.1332ZM40.3416 81.0204C40.3416 82.972 40.3178 84.8634 40.3668 86.7527C40.3745 87.0428 40.6541 87.4808 40.9134 87.5845C41.9345 87.9917 43.5848 87.3266 44.0459 86.2937C44.6633 84.9111 44.7382 83.4556 43.9036 82.1437C43.0802 80.8494 41.7088 80.9783 40.3416 81.0204ZM31.2168 84.2166C32.1012 84.239 33.076 84.4359 33.4537 83.4647C33.6653 82.9202 33.6177 82.0757 33.3254 81.5796C32.8819 80.8256 31.9898 80.9573 31.2161 81.0526L31.2168 84.2166Z" fill="#337BA2"/>
<path fill-rule="evenodd" clip-rule="evenodd" d="M68.6486 83.8137C69.233 83.6875 69.8126 83.7057 70.1889 83.4373C70.5049 83.2131 70.5834 82.6553 70.8252 82.1157C70.9647 82.3659 71.0957 82.4934 71.0985 82.623C71.116 83.5901 71.1195 84.5579 71.0985 85.5249C71.095 85.6763 70.9401 85.8242 70.8553 85.9741C70.76 85.8943 70.6178 85.834 70.5757 85.7317C70.0621 84.4906 70.0649 84.4899 68.5834 84.6224C68.8 85.5908 68.0487 86.8291 69.2071 87.4661C69.7979 87.7905 70.7509 87.7261 71.4419 87.5137C72.0312 87.3343 72.479 86.6931 72.992 86.2538V88.4233C72.7082 88.4486 72.493 88.4836 72.2765 88.4836C69.3746 88.4878 66.4727 88.4752 63.5715 88.4969C63.0711 88.5011 62.7327 88.375 62.4271 87.9552C61.8266 87.1269 61.1664 86.3421 60.5175 85.5502C60.3549 85.3519 60.1433 85.1942 59.802 84.876C59.802 85.6847 59.7726 86.2643 59.8104 86.8396C59.8497 87.4409 60.1391 87.8396 60.8041 87.9146C60.9997 87.937 61.1748 88.1423 61.3592 88.265C61.1692 88.3386 60.9807 88.4738 60.7901 88.4773C59.5098 88.4955 58.2302 88.4948 56.9499 88.478C56.7537 88.4752 56.5589 88.3568 56.343 88.2853L56.4523 88.073C58.0249 87.4381 58.0291 87.4381 58.0277 85.6146C58.0266 84.477 58.0175 83.3394 58.0003 82.2019C57.9884 81.4163 57.7754 80.7933 56.8167 80.7597C56.6787 80.7548 56.5476 80.5586 56.4124 80.4507C56.5708 80.3715 56.7298 80.2229 56.8875 80.2243C58.507 80.2397 60.1356 80.1865 61.7439 80.3364C63.5042 80.5004 64.5925 81.9685 63.9387 83.3196C63.5813 84.0575 62.7558 84.5691 62.0291 85.2944C62.7187 85.9251 63.5126 86.8319 64.4755 87.4913C65.8357 88.4233 66.7656 87.8915 66.8 86.2664C66.8287 84.902 66.7951 83.5362 66.7894 82.1703C66.7866 81.361 66.5365 80.773 65.5862 80.7597C65.4566 80.7576 65.329 80.6195 65.1756 80.5284C65.6696 80.164 70.4307 80.0316 72.4972 80.2958L72.6304 82.5481L72.397 82.6434C71.9163 82.1409 71.9759 81.1024 70.9815 81.0989C70.2218 81.0954 69.4622 81.0155 68.6465 80.9664C68.6486 81.9167 68.6486 82.7814 68.6486 83.8137ZM59.7859 84.2103C61.6149 84.2839 62.3409 83.7877 62.2975 82.5537C62.2547 81.3638 61.4601 80.8837 59.7859 81.0673V84.2103Z" fill="#515151"/>
<path fill-rule="evenodd" clip-rule="evenodd" d="M8.93221 84.7472C9.63018 82.682 10.319 80.6147 11.0366 78.5566C11.1354 78.2735 11.3772 78.0401 11.5531 77.7829C11.7269 78.0478 11.9645 78.291 12.064 78.5818C12.7164 80.4872 13.3373 82.4017 13.9715 84.3134C14.0219 84.4669 14.0871 84.6148 14.2343 84.9925C14.8846 83.0212 15.4865 81.2728 16.031 79.5061C16.2203 78.8943 15.9743 78.4522 15.2623 78.3723C15.0275 78.3449 14.7998 78.2531 14.5258 78.1803C14.9995 77.6554 18.7003 77.6168 19.31 78.1046C19.1446 78.1831 19.0128 78.2945 18.8769 78.3001C17.7206 78.3449 17.1852 79.0688 16.8559 80.0667C15.9743 82.7367 15.0759 85.4003 14.181 88.0661C14.0878 88.3429 13.9708 88.6113 13.8643 88.8832L13.5692 88.9042L11.0612 81.3211L8.52506 88.8811L8.27699 88.8965C8.14734 88.6155 7.98827 88.3429 7.89366 88.0507C7.07586 85.5412 6.26857 83.0282 5.45918 80.5166C5.11229 79.4381 4.76541 78.366 3.34845 78.2973C3.25595 78.2931 3.17115 78.1368 3.08215 78.052C3.19288 77.9609 3.3036 77.7906 3.41572 77.7892C5.00788 77.7724 6.60144 77.7724 8.19359 77.7899C8.30432 77.7906 8.41294 77.963 8.52296 78.0555C8.40453 78.1438 8.29941 78.2721 8.16697 78.3127C6.89156 78.6981 6.79976 78.846 7.2013 80.0829C7.70796 81.6477 8.23003 83.2062 8.7458 84.7682L8.93221 84.7472Z" fill="#3179A1"/>
<path fill-rule="evenodd" clip-rule="evenodd" d="M46.7242 78.1374C46.9198 77.9685 47.0291 77.7913 47.1356 77.7934C49.2078 77.8242 51.2968 77.7282 53.3472 77.9664C55.287 78.1914 56.3613 80.012 55.7761 81.7219C55.252 83.2559 53.959 83.7359 52.4965 83.8691C51.8791 83.9258 51.2519 83.8782 50.5175 83.8782C50.5827 84.8964 50.6156 85.8263 50.7102 86.7499C50.7894 87.5306 51.315 87.8431 52.0578 87.9062C52.2253 87.9209 52.3781 88.108 52.5372 88.216C52.362 88.3043 52.1882 88.4682 52.0116 88.4703C50.4762 88.4907 48.9394 88.49 47.404 88.4717C47.2197 88.4696 47.0375 88.3183 46.8546 88.2363C47.0074 88.1207 47.1573 87.9118 47.3143 87.9055C48.3395 87.8663 48.7243 87.23 48.7369 86.3393C48.7677 84.1802 48.7649 82.0211 48.7383 79.862C48.7271 78.944 48.2835 78.3568 47.2863 78.3161C47.1377 78.3105 46.9905 78.225 46.7242 78.1374ZM50.5946 82.8368C52.4741 83.0316 53.1896 82.8522 53.6423 82.019C54.0964 81.1837 54.0978 80.3098 53.561 79.5201C52.8189 78.4276 51.6836 78.7506 50.5946 78.7114V82.8368Z" fill="#4D4D4D"/>
<path fill-rule="evenodd" clip-rule="evenodd" d="M22.612 88.7983C20.933 88.7254 19.565 88.1985 18.5517 86.9434C17.113 85.162 17.3317 82.7429 19.05 81.2026C20.9035 79.5418 23.968 79.4703 25.8706 81.0828C27.1586 82.1753 27.769 83.5586 27.3499 85.2545C26.8769 87.1676 25.5272 88.1922 23.6933 88.6575C23.3107 88.7535 22.907 88.7619 22.612 88.7983ZM25.7963 84.4192L25.6393 84.3162C25.5349 83.8193 25.474 83.3078 25.3184 82.827C24.8685 81.4458 23.9267 80.7633 22.5412 80.7604C21.1607 80.7576 20.2322 81.4437 19.7809 82.8396C19.38 84.0807 19.4319 85.3106 20.0493 86.4697C20.9708 88.1992 23.4333 88.5236 24.6386 86.9854C25.2007 86.2685 25.4207 85.2825 25.7963 84.4192Z" fill="#3279A1"/>
<path fill-rule="evenodd" clip-rule="evenodd" d="M86.8533 80.2867L87.4791 79.7386V82.8052L87.2976 82.9419C87.1511 82.7352 86.9486 82.548 86.8666 82.3175C86.4525 81.1577 85.5597 80.5284 84.5407 80.834C84.1911 80.9384 83.7706 81.2888 83.6774 81.6118C83.601 81.8753 83.8771 82.3967 84.1476 82.5747C84.854 83.04 85.641 83.3848 86.3999 83.7681C88.0509 84.6034 88.641 85.7618 88.0825 87.087C87.5155 88.4331 85.7958 89.1297 84.2548 88.6097C83.8302 88.4654 83.437 88.2285 83.0439 88.0414L82.4433 88.8305L82.1777 88.7492C82.1777 87.7141 82.1714 86.6791 82.1883 85.6441C82.1897 85.5438 82.3389 85.4464 82.4195 85.3476C82.5456 85.5004 82.7335 85.635 82.7888 85.8101C83.1553 86.9706 83.861 87.7415 85.1189 87.8704C85.8358 87.944 86.5366 87.8557 86.7853 87.0386C87.0124 86.2909 86.491 85.869 85.9311 85.5502C85.3151 85.1998 84.6641 84.9132 84.0334 84.5901C83.7566 84.4478 83.4742 84.307 83.2254 84.1241C82.3445 83.4745 81.9969 82.5382 82.2576 81.5887C82.4903 80.7401 83.3249 80.0211 84.3578 79.9909C85.1224 79.9692 85.896 80.1661 86.8533 80.2867ZM75.4524 88.0141C75.3361 88.2453 75.2716 88.4394 75.1518 88.5894C75.0796 88.6791 74.9023 88.7646 74.8084 88.7352C74.7194 88.7071 74.6248 88.5291 74.6227 88.4156C74.608 87.5053 74.608 86.5943 74.6234 85.6854C74.6248 85.574 74.7481 85.4654 74.8154 85.3553C74.9444 85.4373 75.128 85.4906 75.1917 85.609C75.3102 85.8291 75.3375 86.0968 75.4412 86.3266C75.9093 87.3652 76.8575 88.0148 77.9451 87.8571C78.3999 87.7919 78.9612 87.4465 79.1868 87.0596C79.491 86.5404 79.1266 86.0057 78.6164 85.7106C77.9304 85.314 77.2198 84.9573 76.5078 84.6097C74.8981 83.8242 74.2191 82.527 74.7958 81.3028C75.369 80.0855 77.1294 79.5789 78.6003 80.2124C78.7797 80.2895 78.95 80.3876 79.0908 80.4604L79.8463 79.8396C79.9255 80.0617 79.9759 80.1381 79.9766 80.2145C79.9822 81.0666 79.9801 81.9181 79.9801 82.7695L79.758 82.9181C79.6101 82.7288 79.4048 82.5614 79.3242 82.3476C78.9226 81.274 78.2871 80.6791 77.355 80.7926C76.9177 80.8452 76.3606 81.1458 76.1455 81.506C75.8301 82.0351 76.2856 82.4597 76.7657 82.7176C77.4405 83.0813 78.1315 83.4128 78.8161 83.7569C80.5106 84.6069 81.107 85.7877 80.5218 87.1374C79.9521 88.4521 78.177 89.1325 76.6556 88.5929C76.2604 88.4535 75.8939 88.2285 75.4524 88.0141Z" fill="#505050"/>
<path fill-rule="evenodd" clip-rule="evenodd" d="M46.568 1.15398C27.8006 0.819012 12.1193 16.0475 12.1144 34.5143C12.1088 53.5123 27.0675 68.6693 45.8055 68.6413C64.369 68.6139 79.395 53.5137 79.395 34.8871C79.3943 16.5633 64.437 1.47283 46.568 1.15398ZM45.7635 66.9475C28.0157 66.9517 13.7423 52.5613 13.743 34.665C13.7437 17.2297 28.2385 2.79379 45.7502 2.78748C63.5722 2.78188 77.772 17.2613 77.7664 35.4344C77.7608 52.5914 63.1854 66.944 45.7635 66.9475ZM62.8588 25.3587C62.1623 24.2108 61.3059 23.0973 60.9121 21.8457C60.4636 20.4217 60.0915 18.8009 60.329 17.3734C60.7327 14.9529 62.589 13.7511 65.1027 13.5212C51.3507 0.758045 29.7403 5.32639 21.7774 19.194C24.8426 19.0517 27.769 18.866 30.6975 18.8268C31.2519 18.8191 32.1692 19.2872 32.2995 19.7217C32.591 20.6922 31.7753 21.0307 30.9078 21.0973C29.9961 21.1688 29.083 21.2367 28.0241 21.3173L38.4901 52.4975C38.7417 52.0862 38.8454 51.9706 38.891 51.8353C40.8265 46.0504 42.7733 40.2691 44.6598 34.4673C44.8321 33.9383 44.7467 33.2375 44.5574 32.6937C43.5595 29.8128 42.364 26.9943 41.4888 24.0784C40.8896 22.0819 40.0956 20.7904 37.7361 21.0216C37.3339 21.0609 36.844 20.1961 36.3934 19.749C36.9379 19.4245 37.4782 18.8268 38.0276 18.8184C42.8328 18.7448 47.6388 18.7462 52.444 18.8226C52.9948 18.8317 53.5351 19.4456 54.0803 19.7784C53.603 20.2143 53.1924 20.8674 52.6346 21.0356C51.7404 21.3054 50.7488 21.2543 49.6787 21.3496L60.1574 52.5228C61.7453 47.2502 63.2225 42.4078 64.6577 37.5543C65.9401 33.2221 65.1763 29.1751 62.8588 25.3587ZM37.7789 61.9489C37.7144 62.136 37.7109 62.3434 37.6611 62.6546C43.5883 64.2972 49.3991 64.1787 55.3487 62.1745L46.261 37.2831C43.3521 45.7372 40.563 53.8423 37.7789 61.9489ZM33.1993 60.8234L19.5076 23.2648C13.331 35.33 18.0297 53.7386 33.1993 60.8234ZM71.3578 21.9985C71.1686 24.0966 71.3004 26.4323 70.6984 28.5591C69.2807 33.5711 67.5477 38.4968 65.8792 43.4358C64.0656 48.8038 62.1791 54.1479 60.3241 59.5025C69.0397 54.3364 73.8287 46.7113 74.5912 36.6888C75.0257 30.9845 73.0579 23.0854 71.3578 21.9985Z" fill="#494949"/>
</svg>
