<svg width="79" height="90" viewBox="0 0 79 90" fill="none" xmlns="http://www.w3.org/2000/svg">
<g clip-path="url(#clip0_31_384)">
<path d="M78.2622 17.598L71.2047 82.2906L39.4804 89.4869L7.8435 82.3006L0.793213 17.598H78.2622Z" fill="#E44D26"/>
<path d="M39.5276 83.9862L65.1623 78.1712L71.1932 22.8883H39.5276V83.9862Z" fill="#F16529"/>
<path d="M25.8079 38.7595H39.5277V30.824H15.209L15.441 32.9529L17.8248 54.8211H39.5277V46.8856H26.6943L25.8079 38.7595ZM27.9937 58.7889H18.2581L19.6167 71.2489L39.483 75.7612L39.5277 75.7512V67.495L39.4852 67.5042L28.6843 65.1178L27.9937 58.7889Z" fill="#EBEBEB"/>
<path d="M8.00085 0.0145264H12.9294V3.9988H17.4379V0.0145264H22.3668V12.0799H17.4382V8.03973H12.9297V12.0799H8.00116L8.00085 0.0145264ZM28.8477 4.0157H24.5095V0.0145264H38.118V4.0157H33.7771V12.0799H28.8486V4.0157H28.8477ZM40.2777 0.0145264H45.4167L48.5779 4.25398L51.736 0.0145264H56.8771V12.0799H51.9686V6.09965L48.5779 10.3895H48.4928L45.1 6.09965V12.0799H40.2777V0.0145264ZM59.3298 0.0145264H64.2599V8.09191H71.1908V12.0799H59.3295V0.0145264H59.3298Z" fill="black"/>
<path d="M39.4943 54.8211H51.4367L50.3107 65.1128L39.494 67.5017V75.7575L59.3761 71.2489L59.5218 69.9081L61.8012 49.0165L62.0377 46.8856H39.4943V54.8211ZM39.4943 38.7401V38.7595H62.9202L63.1145 36.9759L63.5567 32.9529L63.7884 30.824H39.4943V38.7401Z" fill="white"/>
</g>
<defs>
<clipPath id="clip0_31_384">
<rect width="77.7391" height="89.699" fill="white" transform="translate(0.658081 0.0145264)"/>
</clipPath>
</defs>
</svg>
