<svg width="40" height="41" viewBox="0 0 40 41" fill="none" xmlns="http://www.w3.org/2000/svg">
<g clip-path="url(#clip0_32_796)">
<path d="M30.625 0.333984H9.375C4.19733 0.333984 0 4.53131 0 9.70898V30.959C0 36.1367 4.19733 40.334 9.375 40.334H30.625C35.8027 40.334 40 36.1367 40 30.959V9.70898C40 4.53131 35.8027 0.333984 30.625 0.333984Z" fill="url(#paint0_radial_32_796)"/>
<path d="M30.625 0.333984H9.375C4.19733 0.333984 0 4.53131 0 9.70898V30.959C0 36.1367 4.19733 40.334 9.375 40.334H30.625C35.8027 40.334 40 36.1367 40 30.959V9.70898C40 4.53131 35.8027 0.333984 30.625 0.333984Z" fill="url(#paint1_radial_32_796)"/>
<path d="M20.0014 4.70898C15.758 4.70898 15.2253 4.72758 13.5588 4.80336C11.8953 4.87961 10.7598 5.14289 9.76641 5.5293C8.73859 5.92836 7.86688 6.46227 6.99844 7.33102C6.12922 8.19961 5.59531 9.07133 5.195 10.0987C4.8075 11.0924 4.54391 12.2284 4.46906 13.891C4.39453 15.5577 4.375 16.0905 4.375 20.3341C4.375 24.5777 4.39375 25.1087 4.46938 26.7752C4.54594 28.4387 4.80922 29.5741 5.19531 30.5676C5.59469 31.5954 6.12859 32.4671 6.99734 33.3355C7.86563 34.2048 8.73734 34.7399 9.76438 35.139C10.7586 35.5254 11.8942 35.7887 13.5573 35.8649C15.2241 35.9407 15.7563 35.9593 19.9995 35.9593C24.2434 35.9593 24.7744 35.9407 26.4409 35.8649C28.1044 35.7887 29.2411 35.5254 30.2353 35.139C31.2627 34.7399 32.1331 34.2048 33.0012 33.3355C33.8705 32.4671 34.4042 31.5954 34.8047 30.568C35.1887 29.5741 35.4525 28.4384 35.5306 26.7755C35.6055 25.109 35.625 24.5777 35.625 20.3341C35.625 16.0905 35.6055 15.558 35.5306 13.8913C35.4525 12.2279 35.1887 11.0926 34.8047 10.0991C34.4042 9.07133 33.8705 8.19961 33.0012 7.33102C32.1322 6.46195 31.263 5.92805 30.2344 5.52945C29.2383 5.14289 28.1022 4.87945 26.4387 4.80336C24.772 4.72758 24.2414 4.70898 19.9966 4.70898H20.0014ZM18.5997 7.52477C19.0158 7.52414 19.48 7.52477 20.0014 7.52477C24.1734 7.52477 24.6678 7.53977 26.3153 7.61461C27.8387 7.6843 28.6656 7.93883 29.2164 8.15273C29.9456 8.43586 30.4655 8.77445 31.012 9.32148C31.5589 9.86836 31.8973 10.3891 32.1813 11.1184C32.3952 11.6684 32.65 12.4952 32.7194 14.0187C32.7942 15.6659 32.8105 16.1605 32.8105 20.3305C32.8105 24.5005 32.7942 24.9954 32.7194 26.6424C32.6497 28.1659 32.3952 28.9927 32.1813 29.5429C31.8981 30.2721 31.5589 30.7913 31.012 31.3379C30.4652 31.8848 29.9459 32.2232 29.2164 32.5065C28.6663 32.7213 27.8387 32.9752 26.3153 33.0449C24.6681 33.1198 24.1734 33.136 20.0014 33.136C15.8292 33.136 15.3347 33.1198 13.6877 33.0449C12.1642 32.9746 11.3373 32.7201 10.7861 32.5062C10.057 32.2229 9.53609 31.8845 8.98922 31.3376C8.44234 30.7907 8.10391 30.2712 7.82 29.5416C7.60609 28.9915 7.35125 28.1646 7.28188 26.6412C7.20703 24.994 7.19203 24.4993 7.19203 20.3266C7.19203 16.1541 7.20703 15.662 7.28188 14.0148C7.35156 12.4913 7.60609 11.6645 7.82 11.1137C8.10328 10.3845 8.44234 9.86367 8.98938 9.3168C9.53625 8.76992 10.057 8.43133 10.7862 8.14758C11.337 7.93273 12.1642 7.67883 13.6877 7.60883C15.1291 7.54367 15.6877 7.52414 18.5997 7.52086V7.52477ZM28.342 10.1191C27.3069 10.1191 26.467 10.9582 26.467 11.9935C26.467 13.0287 27.3069 13.8685 28.342 13.8685C29.3772 13.8685 30.217 13.0287 30.217 11.9935C30.217 10.9584 29.3772 10.1185 28.342 10.1185V10.1191ZM20.0014 12.3099C15.5702 12.3099 11.9773 15.9027 11.9773 20.3341C11.9773 24.7655 15.5702 28.3566 20.0014 28.3566C24.4328 28.3566 28.0244 24.7655 28.0244 20.3341C28.0244 15.9029 24.4325 12.3099 20.0011 12.3099H20.0014ZM20.0014 15.1257C22.8778 15.1257 25.2098 17.4574 25.2098 20.3341C25.2098 23.2105 22.8778 25.5426 20.0014 25.5426C17.1248 25.5426 14.7931 23.2105 14.7931 20.3341C14.7931 17.4574 17.1248 15.1257 20.0014 15.1257Z" fill="white"/>
</g>
<defs>
<radialGradient id="paint0_radial_32_796" cx="0" cy="0" r="1" gradientUnits="userSpaceOnUse" gradientTransform="translate(10.625 43.4148) rotate(-90) scale(39.643 36.8711)">
<stop stop-color="#FFDD55"/>
<stop offset="0.1" stop-color="#FFDD55"/>
<stop offset="0.5" stop-color="#FF543E"/>
<stop offset="1" stop-color="#C837AB"/>
</radialGradient>
<radialGradient id="paint1_radial_32_796" cx="0" cy="0" r="1" gradientUnits="userSpaceOnUse" gradientTransform="translate(-6.70016 3.21539) rotate(78.681) scale(17.7206 73.045)">
<stop stop-color="#3771C8"/>
<stop offset="0.128" stop-color="#3771C8"/>
<stop offset="1" stop-color="#6600FF" stop-opacity="0"/>
</radialGradient>
<clipPath id="clip0_32_796">
<rect width="40" height="40" fill="white" transform="translate(0 0.333984)"/>
</clipPath>
</defs>
</svg>
