<svg width="91" height="91" viewBox="0 0 91 91" fill="none" xmlns="http://www.w3.org/2000/svg">
<g clip-path="url(#clip0_31_369)">
<path d="M45.4609 0.539917C22.7446 0.539917 24.163 10.4297 24.163 10.4297L24.1882 20.6758H45.8659V23.7519H15.5781C15.5781 23.7519 1.04199 22.0969 1.04199 45.1073C1.04199 68.1184 13.7295 67.3023 13.7295 67.3023H21.3013V56.6243C21.3013 56.6243 20.8932 43.887 33.7863 43.887H55.2868C55.2868 43.887 67.3663 44.083 67.3663 32.1667V12.4639C67.3663 12.4639 69.201 0.539917 45.4609 0.539917ZM33.5078 7.43021C34.02 7.42974 34.5274 7.53069 35.0007 7.72728C35.4741 7.92387 35.9042 8.21224 36.2664 8.57588C36.6286 8.93952 36.9158 9.3713 37.1117 9.84651C37.3075 10.3217 37.408 10.831 37.4076 11.3453C37.408 11.8596 37.3075 12.3689 37.1117 12.8441C36.9158 13.3193 36.6286 13.7511 36.2664 14.1147C35.9042 14.4784 35.4741 14.7667 35.0007 14.9633C34.5274 15.1599 34.02 15.2609 33.5078 15.2604C32.9955 15.2609 32.4882 15.1599 32.0148 14.9633C31.5415 14.7667 31.1114 14.4784 30.7492 14.1147C30.3869 13.7511 30.0997 13.3193 29.9039 12.8441C29.7081 12.3689 29.6075 11.8596 29.608 11.3453C29.6075 10.831 29.7081 10.3217 29.9039 9.84651C30.0997 9.3713 30.3869 8.93952 30.7492 8.57588C31.1114 8.21224 31.5415 7.92387 32.0148 7.72728C32.4882 7.53069 32.9955 7.42974 33.5078 7.43021Z" fill="url(#paint0_linear_31_369)"/>
<path d="M46.1059 89.9061C68.8222 89.9061 67.4038 80.0164 67.4038 80.0164L67.3786 69.7707H45.7005V66.6945H75.9883C75.9883 66.6945 90.5244 68.3495 90.5244 45.3384C90.5244 22.3276 77.8369 23.1437 77.8369 23.1437H70.2651V33.8214C70.2651 33.8214 70.6733 46.5587 57.7801 46.5587H36.2797C36.2797 46.5587 24.2001 46.3627 24.2001 58.2793V77.9825C24.2001 77.9825 22.3658 89.9061 46.1056 89.9061H46.1059ZM58.059 83.0166C57.5468 83.017 57.0394 82.9161 56.5661 82.7195C56.0927 82.5229 55.6626 82.2345 55.3004 81.8709C54.9382 81.5072 54.6509 81.0755 54.4551 80.6002C54.2593 80.125 54.1587 79.6157 54.1592 79.1015C54.1587 78.5872 54.2592 78.0778 54.455 77.6026C54.6508 77.1273 54.9381 76.6955 55.3003 76.3318C55.6625 75.9681 56.0926 75.6797 56.566 75.4831C57.0394 75.2865 57.5467 75.1855 58.059 75.186C58.5713 75.1855 59.0786 75.2865 59.5519 75.4831C60.0253 75.6797 60.4554 75.968 60.8176 76.3317C61.1798 76.6953 61.4671 77.1271 61.6629 77.6023C61.8587 78.0775 61.9593 78.5868 61.9588 79.1011C61.9593 79.6154 61.8587 80.1247 61.6629 80.5999C61.4671 81.0751 61.1798 81.5069 60.8176 81.8705C60.4554 82.2342 60.0253 82.5225 59.5519 82.7191C59.0786 82.9157 58.5713 83.017 58.059 83.0166Z" fill="url(#paint1_linear_31_369)"/>
</g>
<defs>
<linearGradient id="paint0_linear_31_369" x1="860.965" y1="804.336" x2="5312.63" y2="5194.37" gradientUnits="userSpaceOnUse">
<stop stop-color="#387EB8"/>
<stop offset="1" stop-color="#366994"/>
</linearGradient>
<linearGradient id="paint1_linear_31_369" x1="1293.45" y1="1397.12" x2="6073.15" y2="5897.88" gradientUnits="userSpaceOnUse">
<stop stop-color="#FFE052"/>
<stop offset="1" stop-color="#FFC331"/>
</linearGradient>
<clipPath id="clip0_31_369">
<rect width="89.699" height="89.699" fill="white" transform="translate(0.991211 0.514526)"/>
</clipPath>
</defs>
</svg>
