<svg width="51" height="51" viewBox="0 0 51 51" fill="none" xmlns="http://www.w3.org/2000/svg">
<path d="M25.5 4.61133C22.7641 4.61133 20.055 5.1502 17.5274 6.19717C14.9998 7.24414 12.7031 8.77872 10.7686 10.7133C6.86156 14.6203 4.66663 19.9193 4.66663 25.4447C4.66663 34.653 10.6458 42.4655 18.9166 45.2363C19.9583 45.403 20.2916 44.7572 20.2916 44.1947V40.6738C14.5208 41.9238 13.2916 37.8822 13.2916 37.8822C12.3333 35.4655 10.9791 34.8197 10.9791 34.8197C9.08329 33.528 11.125 33.5697 11.125 33.5697C13.2083 33.7155 14.3125 35.7155 14.3125 35.7155C16.125 38.8822 19.1875 37.9447 20.375 37.4447C20.5625 36.0905 21.1041 35.1738 21.6875 34.653C17.0625 34.1322 12.2083 32.3405 12.2083 24.403C12.2083 22.0905 13 20.2363 14.3541 18.7572C14.1458 18.2363 13.4166 16.0697 14.5625 13.2572C14.5625 13.2572 16.3125 12.6947 20.2916 15.3822C21.9375 14.9238 23.7291 14.6947 25.5 14.6947C27.2708 14.6947 29.0625 14.9238 30.7083 15.3822C34.6875 12.6947 36.4375 13.2572 36.4375 13.2572C37.5833 16.0697 36.8541 18.2363 36.6458 18.7572C38 20.2363 38.7916 22.0905 38.7916 24.403C38.7916 32.3613 33.9166 34.1113 29.2708 34.6322C30.0208 35.278 30.7083 36.5488 30.7083 38.4863V44.1947C30.7083 44.7572 31.0416 45.4238 32.1041 45.2363C40.375 42.4447 46.3333 34.653 46.3333 25.4447C46.3333 22.7088 45.7944 19.9997 44.7475 17.4721C43.7005 14.9445 42.1659 12.6478 40.2314 10.7133C38.2968 8.77872 36.0002 7.24414 33.4725 6.19717C30.9449 5.1502 28.2358 4.61133 25.5 4.61133Z" fill="#FFFDFD"/>
</svg>
