<svg width="79" height="90" viewBox="0 0 79 90" fill="none" xmlns="http://www.w3.org/2000/svg">
<g clip-path="url(#clip0_31_389)">
<path d="M39.376 89.4869L7.73913 82.3006L0.688843 17.598H78.1579L71.1003 82.2906L39.376 89.4869Z" fill="#264DE4"/>
<path d="M65.058 78.1712L71.0888 22.8883H39.4232V83.9862L65.058 78.1712Z" fill="#2965F1"/>
<path d="M16.8513 46.8856L17.7204 54.8211H39.4233V46.8856H16.8513ZM15.1046 30.824L15.9862 38.7595H39.4233V30.824H15.1046ZM39.4233 67.495L39.3808 67.5042L28.5799 65.1178L27.8894 58.7889H18.1537L19.5124 71.2489L39.3787 75.7612L39.4233 75.7512V67.495Z" fill="#EBEBEB"/>
<path d="M18.9208 0.0145264H30.6667V4.03384H23.8329V8.05315H30.6673V12.0722H18.9208V0.0145264ZM33.0162 0.0145264H44.7624V3.50956H37.9283V4.20851H44.7624V12.2471H33.0165V8.57693H39.8506V7.87797H33.0159L33.0162 0.0145264ZM47.1119 0.0145264H58.8581V3.50956H52.0241V4.20851H58.8581V12.2471H47.1119V8.57693H53.946V7.87797H47.1122V0.0145264H47.1119Z" fill="black"/>
<path d="M61.9334 46.8856L63.684 30.824H39.39V38.7595H53.0556L52.1732 46.8856H39.39V54.8211H51.3323L50.2063 65.1128L39.3896 67.5017V75.7575L59.2717 71.2489L59.4175 69.9081L61.6968 49.0165L61.9334 46.8856Z" fill="white"/>
</g>
<defs>
<clipPath id="clip0_31_389">
<rect width="77.7391" height="89.699" fill="white" transform="translate(0.553711 0.0145264)"/>
</clipPath>
</defs>
</svg>
