<svg width="91" height="90" viewBox="0 0 91 90" fill="none" xmlns="http://www.w3.org/2000/svg">
<g clip-path="url(#clip0_31_379)">
<path d="M69.4584 0.0145264H21.8058C10.195 0.0145264 0.782593 9.42693 0.782593 21.0377V68.6903C0.782593 80.3011 10.195 89.7135 21.8058 89.7135H69.4584C81.0692 89.7135 90.4816 80.3011 90.4816 68.6903V21.0377C90.4816 9.42693 81.0692 0.0145264 69.4584 0.0145264Z" fill="#F0DB4F"/>
<path d="M24.3678 74.9735L31.2319 70.8193C32.5563 73.1672 33.7609 75.1539 36.6506 75.1539C39.4204 75.1539 41.1667 74.0705 41.1667 69.8561V41.1951H49.5963V69.9752C49.5963 78.7058 44.4786 82.6799 37.0118 82.6799C30.2686 82.6799 26.3545 79.1876 24.3674 74.9728M54.1748 74.0702L61.0382 70.0964C62.8451 73.047 65.1934 75.2145 69.3476 75.2145C72.8406 75.2145 75.0677 73.4682 75.0677 71.0597C75.0677 68.1697 72.7797 67.1458 68.9261 65.4605L66.8192 64.5568C60.7376 61.9682 56.7032 58.7166 56.7032 51.8525C56.7032 45.5301 61.5203 40.713 69.047 40.713C74.4058 40.713 78.2594 42.5799 81.0288 47.4569L74.4657 51.6717C73.0204 49.0827 71.4556 48.0592 69.047 48.0592C66.5782 48.0592 65.0126 49.6247 65.0126 51.6717C65.0126 54.2004 66.5782 55.2243 70.1906 56.7902L72.2979 57.6931C79.4629 60.7642 83.4973 63.8946 83.4973 70.9391C83.4973 78.5264 77.5365 82.6806 69.5284 82.6806C61.7011 82.6806 56.6433 78.9476 54.1748 74.0702Z" fill="#323330"/>
</g>
<defs>
<clipPath id="clip0_31_379">
<rect width="89.699" height="89.699" fill="white" transform="translate(0.782593 0.0145264)"/>
</clipPath>
</defs>
</svg>
