<svg width="91" height="90" viewBox="0 0 91 90" fill="none" xmlns="http://www.w3.org/2000/svg">
<g clip-path="url(#clip0_31_374)">
<path d="M84.1149 67.1626C84.7386 66.0813 85.1247 64.8641 85.1247 63.7688V25.789C85.1247 24.6972 84.7393 23.4785 84.1149 22.3972L45.3481 44.7799L84.1149 67.1626Z" fill="#00599C"/>
<path d="M48.7917 88.7226L81.6811 69.7358C82.6286 69.1885 83.4905 68.2439 84.1149 67.1626L45.3481 44.7799L6.57715 67.1626C7.20084 68.2439 8.06349 69.1878 9.01093 69.7358L41.9003 88.7226C43.7945 89.8172 46.8968 89.8172 48.7903 88.7226H48.7917Z" fill="#004482"/>
<path d="M84.1149 22.398C83.4905 21.3146 82.6285 20.3699 81.6811 19.8254L48.791 0.835886C46.8968 -0.259423 43.7952 -0.259423 41.901 0.835886L9.01159 19.8254C7.1167 20.9172 5.56799 23.6026 5.56799 25.789V63.7681C5.56799 64.8627 5.95342 66.0807 6.57781 67.162L45.3474 44.78L84.1149 22.398Z" fill="#659AD2"/>
<path d="M45.3474 18.2591C30.7243 18.2591 18.828 30.1562 18.828 44.7792C18.828 59.4022 30.7243 71.2993 45.3474 71.2993C54.7833 71.2993 63.5843 66.2208 68.3117 58.0476L56.8366 51.4057C54.4679 55.4982 50.0671 58.0385 45.3474 58.0385C38.0362 58.0385 32.0873 52.0904 32.0873 44.7785C32.0873 37.4666 38.0369 31.5185 45.3474 31.5185C50.0636 31.5185 54.4693 34.0616 56.833 38.1513L68.3117 31.51C63.5815 23.3362 54.7833 18.2591 45.3474 18.2591ZM65.9746 40.358V43.3062H63.0265V46.2515H65.9746V49.1997H68.92V46.2515H71.8653V43.3062H68.92V40.358H65.9746ZM77.023 40.358V43.3062H74.077V46.2515H77.023V49.1997H79.9712V46.2515H82.9165V43.3062H79.9712V40.358H77.023Z" fill="white"/>
</g>
<defs>
<clipPath id="clip0_31_374">
<rect width="89.699" height="89.699" fill="white" transform="translate(0.886841 0.0145264)"/>
</clipPath>
</defs>
</svg>
