<svg width="69" height="90" viewBox="0 0 69 90" fill="none" xmlns="http://www.w3.org/2000/svg">
<g clip-path="url(#clip0_31_399)">
<path d="M20.3424 89.8754C31.4637 89.8754 40.4897 83.1778 40.4897 74.9255V59.9757H20.3424C9.22115 59.9757 0.19519 66.6732 0.19519 74.9255C0.19519 83.1778 9.22115 89.8754 20.3424 89.8754Z" fill="#0ACF83"/>
<path d="M0.19519 45.0259C0.19519 36.7736 9.22115 30.076 20.3424 30.076H40.4897V59.9757H20.3424C9.22115 59.9757 0.19519 53.2782 0.19519 45.0259Z" fill="#A259FF"/>
<path d="M0.19519 15.1262C0.19519 6.87392 9.22115 0.176392 20.3424 0.176392H40.4897V30.0761H20.3424C9.22115 30.0761 0.19519 23.3785 0.19519 15.1262Z" fill="#F24E1E"/>
<path d="M34.5798 0.176392H54.7271C65.8483 0.176392 74.8743 6.87392 74.8743 15.1262C74.8743 23.3785 65.8483 30.0761 54.7271 30.0761H34.5798V0.176392Z" fill="#FF7262"/>
<path d="M74.8743 45.0259C74.8743 53.2782 65.8483 59.9757 54.7271 59.9757C43.6058 59.9757 34.5798 53.2782 34.5798 45.0259C34.5798 36.7736 43.6058 30.076 54.7271 30.076C65.8483 30.076 74.8743 36.7736 74.8743 45.0259Z" fill="#1ABCFE"/>
</g>
<defs>
<clipPath id="clip0_31_399">
<rect width="68.7692" height="89.699" fill="white" transform="translate(0.19519 0.176392)"/>
</clipPath>
</defs>
</svg>
