<svg width="40" height="41" viewBox="0 0 40 41" fill="none" xmlns="http://www.w3.org/2000/svg">
<g clip-path="url(#clip0_32_793)">
<path d="M30.625 0.333984H9.375C4.19733 0.333984 0 4.53131 0 9.70898V30.959C0 36.1367 4.19733 40.334 9.375 40.334H30.625C35.8027 40.334 40 36.1367 40 30.959V9.70898C40 4.53131 35.8027 0.333984 30.625 0.333984Z" fill="white"/>
<path d="M30.625 0.333984H9.375C4.19733 0.333984 0 4.53131 0 9.70898V30.959C0 36.1367 4.19733 40.334 9.375 40.334H30.625C35.8027 40.334 40 36.1367 40 30.959V9.70898C40 4.53131 35.8027 0.333984 30.625 0.333984Z" fill="#0A66C2"/>
<path d="M28.8617 34.3473H33.4352C33.6009 34.3473 33.7598 34.2814 33.877 34.1643C33.9942 34.0471 34.0601 33.8882 34.0602 33.7224L34.0625 24.0596C34.0625 19.0091 32.9742 15.1271 27.0722 15.1271C24.8286 15.0437 22.7128 16.2002 21.5711 18.1315C21.5655 18.1409 21.557 18.1482 21.5469 18.1523C21.5368 18.1564 21.5256 18.157 21.5151 18.1542C21.5045 18.1513 21.4952 18.1451 21.4885 18.1365C21.4819 18.1278 21.4782 18.1172 21.4781 18.1063V16.2184C21.4781 16.0526 21.4123 15.8936 21.2951 15.7764C21.1779 15.6592 21.0189 15.5934 20.8531 15.5934H16.513C16.3472 15.5934 16.1882 15.6592 16.071 15.7764C15.9538 15.8936 15.888 16.0526 15.888 16.2184V33.7215C15.888 33.8872 15.9538 34.0462 16.071 34.1634C16.1882 34.2806 16.3472 34.3465 16.513 34.3465H21.0861C21.2519 34.3465 21.4108 34.2806 21.528 34.1634C21.6452 34.0462 21.7111 33.8872 21.7111 33.7215V25.0695C21.7111 22.623 22.1752 20.2538 25.2081 20.2538C28.198 20.2538 28.2367 23.0532 28.2367 25.2279V33.7223C28.2367 33.888 28.3026 34.047 28.4198 34.1642C28.537 34.2814 28.696 34.3473 28.8617 34.3473ZM5.9375 9.6507C5.9375 11.5046 7.46359 13.0299 9.3175 13.0299C11.1709 13.0298 12.6961 11.5035 12.6961 9.65008C12.6958 7.79664 11.1705 6.27148 9.31687 6.27148C7.46281 6.27148 5.9375 7.79695 5.9375 9.6507ZM7.02484 34.3473H11.6041C11.7698 34.3473 11.9288 34.2814 12.046 34.1642C12.1632 34.047 12.2291 33.888 12.2291 33.7223V16.2184C12.2291 16.0526 12.1632 15.8936 12.046 15.7764C11.9288 15.6592 11.7698 15.5934 11.6041 15.5934H7.02484C6.85908 15.5934 6.70011 15.6592 6.5829 15.7764C6.46569 15.8936 6.39984 16.0526 6.39984 16.2184V33.7223C6.39984 33.888 6.46569 34.047 6.5829 34.1642C6.70011 34.2814 6.85908 34.3473 7.02484 34.3473Z" fill="white"/>
</g>
<defs>
<clipPath id="clip0_32_793">
<rect width="40" height="40" fill="white" transform="translate(0 0.333984)"/>
</clipPath>
</defs>
</svg>
