<svg width="51" height="37" viewBox="0 0 51 37" fill="none" xmlns="http://www.w3.org/2000/svg">
<g clip-path="url(#clip0_32_782)">
<path d="M11.8637 36.2674V17.8178L5.87246 12.5833L0.5 9.67847V33.0115C0.5 34.813 2.02832 36.2674 3.90918 36.2674H11.8637Z" fill="#4285F4"/>
<path d="M39.1364 36.2674H47.0908C48.9774 36.2674 50.5 34.8076 50.5 33.0116V9.67871L44.4149 13.0058L39.1364 17.8179V36.2674Z" fill="#34A853"/>
<path d="M11.8637 17.8177L11.0485 10.609L11.8637 3.70947L25.5 13.4769L39.1364 3.70947L40.0483 10.2365L39.1364 17.8177L25.5 27.5851L11.8637 17.8177Z" fill="#EA4335"/>
<path d="M39.1364 3.70976V17.818L50.5 9.67867V5.33759C50.5 1.31138 45.6875 -0.983854 42.3184 1.43076L39.1364 3.70976Z" fill="#FBBC04"/>
<path d="M0.5 9.67851L5.72637 13.4221L11.8637 17.8179V3.7096L8.68164 1.4306C5.30664 -0.9842 0.5 1.31122 0.5 5.33725V9.67833V9.67851Z" fill="#C5221F"/>
</g>
<defs>
<clipPath id="clip0_32_782">
<rect width="50" height="36" fill="white" transform="translate(0.5 0.44458)"/>
</clipPath>
</defs>
</svg>
